<svg width="535" height="526" viewBox="0 0 535 526" fill="none" xmlns="http://www.w3.org/2000/svg">
<g filter="url(#filter0_i_106_39)">
<path fill-rule="evenodd" clip-rule="evenodd" d="M114 380.94V255.313L262.561 441.246C283.099 466.951 264.797 505 231.895 505C219.954 505 208.663 499.565 201.214 490.231L114 380.94Z" fill="#DB2396"/>
</g>
<g filter="url(#filter1_i_106_39)">
<path fill-rule="evenodd" clip-rule="evenodd" d="M414 130.156V255.627L264.647 68.4676C244.218 42.8671 262.446 5 295.199 5C307.081 5 318.319 10.4052 325.736 19.6883L414 130.156Z" fill="#1771C2"/>
</g>
<g filter="url(#filter2_d_106_39)">
<path d="M505.094 493.853C508.045 497.547 514 495.46 514 490.732L514 55C514 27.3858 491.614 5 464 5C436.386 5 414 27.3858 414 55V255.667L225.719 19.6882C218.313 10.4059 207.084 5 195.21 5C164.306 5 146.36 38.7539 161.668 64.0333L505.094 493.853Z" fill="url(#paint0_linear_106_39)"/>
</g>
<g filter="url(#filter3_d_106_39)">
<path d="M14 455V19.2678C14 14.5399 19.955 12.4531 22.9063 16.1468L366.021 445.577C381.443 471.018 363.382 505 332.277 505C320.331 505 309.034 499.563 301.581 490.227L114 255.261V455C114 482.614 91.6142 505 64 505C36.3858 505 14 482.614 14 455Z" fill="url(#paint1_linear_106_39)"/>
</g>
<g filter="url(#filter4_dd_106_39)">
<path d="M399.858 487.937L63.8819 67.6503C43.3707 41.9919 61.6391 4 94.4882 4C106.38 4 117.628 9.40025 125.065 18.6797L461.553 438.556C482.451 464.632 463.555 503.262 430.143 502.773C418.338 502.6 407.23 497.158 399.858 487.937Z" fill="#FFB431"/>
</g>
<g style="mix-blend-mode:soft-light" filter="url(#filter5_f_106_39)">
<path d="M67 459.5V166.016C67 158.486 76.4554 155.126 81.2065 160.968L324 459.5" stroke="#F7A9B7" stroke-width="33" stroke-linecap="round"/>
</g>
<g style="mix-blend-mode:soft-light" filter="url(#filter6_f_106_39)">
<path d="M468 78V370.849C468 378.448 458.399 381.766 453.707 375.788L220 78" stroke="#7CB7CA" stroke-width="33" stroke-linecap="round"/>
</g>
<defs>
<filter id="filter0_i_106_39" x="114" y="255.313" width="157.221" height="253.687" filterUnits="userSpaceOnUse" color-interpolation-filters="sRGB">
<feFlood flood-opacity="0" result="BackgroundImageFix"/>
<feBlend mode="normal" in="SourceGraphic" in2="BackgroundImageFix" result="shape"/>
<feColorMatrix in="SourceAlpha" type="matrix" values="0 0 0 0 0 0 0 0 0 0 0 0 0 0 0 0 0 0 127 0" result="hardAlpha"/>
<feOffset dy="4"/>
<feGaussianBlur stdDeviation="2"/>
<feComposite in2="hardAlpha" operator="arithmetic" k2="-1" k3="1"/>
<feColorMatrix type="matrix" values="0 0 0 0 0 0 0 0 0 0 0 0 0 0 0 0 0 0 0.25 0"/>
<feBlend mode="normal" in2="shape" result="effect1_innerShadow_106_39"/>
</filter>
<filter id="filter1_i_106_39" x="256.038" y="1" width="157.962" height="254.626" filterUnits="userSpaceOnUse" color-interpolation-filters="sRGB">
<feFlood flood-opacity="0" result="BackgroundImageFix"/>
<feBlend mode="normal" in="SourceGraphic" in2="BackgroundImageFix" result="shape"/>
<feColorMatrix in="SourceAlpha" type="matrix" values="0 0 0 0 0 0 0 0 0 0 0 0 0 0 0 0 0 0 127 0" result="hardAlpha"/>
<feOffset dy="-4"/>
<feGaussianBlur stdDeviation="2"/>
<feComposite in2="hardAlpha" operator="arithmetic" k2="-1" k3="1"/>
<feColorMatrix type="matrix" values="0 0 0 0 0 0 0 0 0 0 0 0 0 0 0 0 0 0 0.25 0"/>
<feBlend mode="normal" in2="shape" result="effect1_innerShadow_106_39"/>
</filter>
<filter id="filter2_d_106_39" x="150.105" y="1" width="365.895" height="498.742" filterUnits="userSpaceOnUse" color-interpolation-filters="sRGB">
<feFlood flood-opacity="0" result="BackgroundImageFix"/>
<feColorMatrix in="SourceAlpha" type="matrix" values="0 0 0 0 0 0 0 0 0 0 0 0 0 0 0 0 0 0 127 0" result="hardAlpha"/>
<feOffset dx="-2"/>
<feGaussianBlur stdDeviation="2"/>
<feComposite in2="hardAlpha" operator="out"/>
<feColorMatrix type="matrix" values="0 0 0 0 0 0 0 0 0 0 0 0 0 0 0 0 0 0 0.25 0"/>
<feBlend mode="normal" in2="BackgroundImageFix" result="effect1_dropShadow_106_39"/>
<feBlend mode="normal" in="SourceGraphic" in2="effect1_dropShadow_106_39" result="shape"/>
</filter>
<filter id="filter3_d_106_39" x="12" y="10.2581" width="365.629" height="498.742" filterUnits="userSpaceOnUse" color-interpolation-filters="sRGB">
<feFlood flood-opacity="0" result="BackgroundImageFix"/>
<feColorMatrix in="SourceAlpha" type="matrix" values="0 0 0 0 0 0 0 0 0 0 0 0 0 0 0 0 0 0 127 0" result="hardAlpha"/>
<feOffset dx="2"/>
<feGaussianBlur stdDeviation="2"/>
<feComposite in2="hardAlpha" operator="out"/>
<feColorMatrix type="matrix" values="0 0 0 0 0 0 0 0 0 0 0 0 0 0 0 0 0 0 0.25 0"/>
<feBlend mode="normal" in2="BackgroundImageFix" result="effect1_dropShadow_106_39"/>
<feBlend mode="normal" in="SourceGraphic" in2="effect1_dropShadow_106_39" result="shape"/>
</filter>
<filter id="filter4_dd_106_39" x="47.231" y="0" width="431.08" height="506.777" filterUnits="userSpaceOnUse" color-interpolation-filters="sRGB">
<feFlood flood-opacity="0" result="BackgroundImageFix"/>
<feColorMatrix in="SourceAlpha" type="matrix" values="0 0 0 0 0 0 0 0 0 0 0 0 0 0 0 0 0 0 127 0" result="hardAlpha"/>
<feOffset dx="-4"/>
<feGaussianBlur stdDeviation="2"/>
<feComposite in2="hardAlpha" operator="out"/>
<feColorMatrix type="matrix" values="0 0 0 0 0 0 0 0 0 0 0 0 0 0 0 0 0 0 0.25 0"/>
<feBlend mode="normal" in2="BackgroundImageFix" result="effect1_dropShadow_106_39"/>
<feColorMatrix in="SourceAlpha" type="matrix" values="0 0 0 0 0 0 0 0 0 0 0 0 0 0 0 0 0 0 127 0" result="hardAlpha"/>
<feOffset dx="4"/>
<feGaussianBlur stdDeviation="2"/>
<feComposite in2="hardAlpha" operator="out"/>
<feColorMatrix type="matrix" values="0 0 0 0 0 0 0 0 0 0 0 0 0 0 0 0 0 0 0.25 0"/>
<feBlend mode="normal" in2="effect1_dropShadow_106_39" result="effect2_dropShadow_106_39"/>
<feBlend mode="normal" in="SourceGraphic" in2="effect2_dropShadow_106_39" result="shape"/>
</filter>
<filter id="filter5_f_106_39" x="0.5" y="91.467" width="390" height="434.533" filterUnits="userSpaceOnUse" color-interpolation-filters="sRGB">
<feFlood flood-opacity="0" result="BackgroundImageFix"/>
<feBlend mode="normal" in="SourceGraphic" in2="BackgroundImageFix" result="shape"/>
<feGaussianBlur stdDeviation="25" result="effect1_foregroundBlur_106_39"/>
</filter>
<filter id="filter6_f_106_39" x="153.499" y="11.4993" width="381.001" height="433.897" filterUnits="userSpaceOnUse" color-interpolation-filters="sRGB">
<feFlood flood-opacity="0" result="BackgroundImageFix"/>
<feBlend mode="normal" in="SourceGraphic" in2="BackgroundImageFix" result="shape"/>
<feGaussianBlur stdDeviation="25" result="effect1_foregroundBlur_106_39"/>
</filter>
<linearGradient id="paint0_linear_106_39" x1="534" y1="505" x2="283.5" y2="-22.5" gradientUnits="userSpaceOnUse">
<stop stop-color="#28ECE0"/>
<stop offset="1" stop-color="#67A3E8"/>
</linearGradient>
<linearGradient id="paint1_linear_106_39" x1="14" y1="25" x2="213" y2="512.5" gradientUnits="userSpaceOnUse">
<stop stop-color="#F37E48"/>
<stop offset="0.53" stop-color="#F3446E"/>
<stop offset="1" stop-color="#F1735E"/>
</linearGradient>
</defs>
</svg>
